<svg xmlns="http://www.w3.org/2000/svg" viewBox="0 0 128 128" width="100%" height="100%">
  <rect width="128" height="128" rx="28" fill="#000000"/>
  <g transform="translate(4, 4)">
    <path d="M 60,16 
             C 84.3,16 104,35.7 104,60 
             C 104,70.8 100.1,80.7 93.6,88.4 
             L 99.2,101.1 
             C 100.1,103.2 98.1,105.3 95.9,104.4 
             L 82.3,99.2 
             C 75.6,102.3 68.0,104 60,104 
             C 35.7,104 16,84.3 16,60 
             C 16,35.7 35.7,16 60,16 Z
             M 60,28 
             C 42.3,28 28,42.3 28,60 
             C 28,77.7 42.3,92 60,92 
             C 66.1,92 71.8,90.3 76.7,87.3 
             L 78.4,86.3 86.8,89.5 83.6,82.2 84.8,80.3 
             C 89.3,74.7 92,67.6 92,60 
             C 92,42.3 77.7,28 60,28 Z" 
          fill="#ffffff" />
    <rect x="42" y="47" width="22" height="26" rx="6" fill="#ffffff" />
    <path d="M 69,51.4 C 69,49.5 71.1,48.4 72.7,49.4 L 81.3,55.0 C 82.7,55.9 82.7,58.1 81.3,59.0 L 72.7,64.6 C 71.1,65.6 69,64.5 69,62.6 Z" fill="#ffffff" />
    <circle cx="82" cy="40" r="5" fill="#ffffff" />
    <circle cx="82" cy="40" r="2.5" fill="#000000" />
  </g>
</svg>
