<svg xmlns="http://www.w3.org/2000/svg" viewBox="0 0 32 32">
  <defs>
    <linearGradient id="g" x1="0" y1="0" x2="32" y2="32" gradientUnits="userSpaceOnUse">
      <stop offset="0%" stop-color="#7c3aed"/>
      <stop offset="50%" stop-color="#6366f1"/>
      <stop offset="100%" stop-color="#06b6d4"/>
    </linearGradient>
  </defs>
  <rect width="32" height="32" rx="8" fill="url(#g)"/>
  <path d="M11 10.5a1 1 0 0 1 1-1h4.5a1 1 0 0 1 1 1v5a1 1 0 0 1-1 1H12a1 1 0 0 1-1-1v-5z" fill="white" opacity="0.95"/>
  <path d="M20 10.5a1 1 0 0 1 1-1h2.5a1 1 0 0 1 1 1v7a1 1 0 0 1-1 1H21a1 1 0 0 1-1-1v-7z" fill="white" opacity="0.7"/>
</svg>
